<?xml version="1.0" encoding="UTF-8"?>
<svg width="361px" height="352px" viewBox="0 0 361 352" version="1.1" xmlns="http://www.w3.org/2000/svg" xmlns:xlink="http://www.w3.org/1999/xlink">
    <!-- Generator: Sketch 58 (84663) - https://sketch.com -->
    <title>Untitled 7</title>
    <desc>Created with Sketch.</desc>
    <g id="Page-1" stroke="none" stroke-width="1" fill="none" fill-rule="evenodd">
        <g id="Group-3" fill="#F0F0F0">
            <path d="M199.279244,119.18207 C136.86159,117.23945 90.4670268,154.079546 74.0339834,218.673852 C65.4162302,252.560817 67.9370103,286.334536 75.202788,320.047275 C75.4906279,321.35397 75.6040194,322.712933 76.2494786,327.234099 C66.4280312,318.365994 57.9934489,311.884785 50.9108421,304.166571 C2.44034196,251.367369 -12.3179964,189.83073 10.5085825,122.274582 C33.1956026,55.119154 81.7620494,14.0279418 152.09094,2.48546643 C268.500386,-16.6271305 369.078637,77.0629241 360.487051,194.996533 C355.340822,265.55808 302.657392,331.816244 238.722037,348.149936 C177.290017,363.838991 119.355689,330.352745 104.640963,270.018267 C89.9436815,209.753478 133.468568,139.270333 206.274626,144.610361 C223.396741,145.864789 239.044767,151.196105 251.87545,163.060899 C278.016549,187.243474 275.739997,218.421224 245.691252,239.476441 C245.324911,234.118991 245.39469,229.109992 244.56606,224.249085 C241.713828,207.593076 232.058106,197.156936 219.332092,196.477454 C205.541943,195.754416 190.644046,207.601787 186.570675,222.524247 C177.80464,254.686375 202.052974,288.129064 236.236147,290.925392 C271.797462,293.834967 298.191511,279.173845 314.144822,247.769601 C348.842617,179.472992 327.184843,84.9205187 244.086327,44.9617757 C170.094019,9.38481773 77.2263899,43.7073482 44.9359829,118.406764 C44.028851,120.506188 43.3921142,122.72757 42.8164343,124.347872 C59.2320329,113.990134 74.8538911,102.264721 92.0370628,93.6318208 C142.217158,68.4126011 193.531168,64.4402473 244.487558,91.4017275 C272.826708,106.40259 294.214087,127.788837 296.176632,162.146212 C296.734867,171.876737 294.039639,181.790199 292.835944,191.625259 C291.928812,191.416187 291.012958,191.215828 290.105826,191.006756 C279.909315,145.664429 248.351591,120.715259 199.279244,119.18207 Z" id="Fill-1"></path>
        </g>
    </g>
</svg>